HIERARCHY
ROOT Hips
{
	OFFSET 2.089284 1.301217 -4.152254
	CHANNELS 6 Xposition Yposition Zposition Zrotation Yrotation Xrotation 
	JOINT Spine
	{
		OFFSET -0.000064 8.340418 -2.713938
		CHANNELS 3 Zrotation Yrotation Xrotation
		JOINT Spine1
		{
			OFFSET 0.000042 11.909946 -2.100034
			CHANNELS 3 Zrotation Yrotation Xrotation
			JOINT Spine2
			{
				OFFSET 0.000019 12.047692 -1.054080
				CHANNELS 3 Zrotation Yrotation Xrotation
				JOINT Spine3
				{
					OFFSET -0.000032 12.093748 -0.000043
					CHANNELS 3 Zrotation Yrotation Xrotation
					JOINT Neck
					{
						OFFSET 0.000009 15.549112 1.554868
						CHANNELS 3 Zrotation Yrotation Xrotation
						JOINT Neck1
						{
							OFFSET 0.000069 4.687376 0.410074
							CHANNELS 3 Zrotation Yrotation Xrotation
							JOINT Head
							{
								OFFSET 0.000037 4.633817 0.816975
								CHANNELS 3 Zrotation Yrotation Xrotation
								JOINT HeadEnd
								{
									OFFSET -0.000010 9.727668 -0.000044
									CHANNELS 3 Zrotation Yrotation Xrotation
									End Site
									{
										OFFSET 0.000000 0.000000 0.000000
									}
								}
							}
						}
					}
					JOINT RightShoulder
					{
						OFFSET -0.000023 11.106450 6.072603
						CHANNELS 3 Zrotation Yrotation Xrotation
						JOINT RightArm
						{
							OFFSET -19.427902 0.000053 0.000063
							CHANNELS 3 Zrotation Yrotation Xrotation
							JOINT RightForeArm
							{
								OFFSET -29.350727 -0.000029 -0.000061
								CHANNELS 3 Zrotation Yrotation Xrotation
								JOINT RightHand
								{
									OFFSET -27.018029 -0.000028 0.000029
									CHANNELS 3 Zrotation Yrotation Xrotation
									JOINT RightHandMiddle1
									{
										OFFSET -9.244044 -0.000005 -0.000006
										CHANNELS 3 Zrotation Yrotation Xrotation
										JOINT RightHandMiddle2
										{
											OFFSET -4.870018 -0.000007 0.000024
											CHANNELS 3 Zrotation Yrotation Xrotation
											JOINT RightHandMiddle3
											{
												OFFSET -3.169049 -0.000007 0.000017
												CHANNELS 3 Zrotation Yrotation Xrotation
												JOINT RightHandMiddle4
												{
													OFFSET -1.888365 0.000006 -0.000028
													CHANNELS 3 Zrotation Yrotation Xrotation
													End Site
													{
														OFFSET 0.000000 0.000000 0.000000
													}
												}
											}
										}
									}
									JOINT RightHandRing
									{
										OFFSET -0.250014 -0.249980 -0.956484
										CHANNELS 3 Zrotation Yrotation Xrotation
										JOINT RightHandRing1
										{
											OFFSET -8.140193 -0.000004 -0.734578
											CHANNELS 3 Zrotation Yrotation Xrotation
											JOINT RightHandRing2
											{
												OFFSET -4.501548 0.000035 -0.406267
												CHANNELS 3 Zrotation Yrotation Xrotation
												JOINT RightHandRing3
												{
													OFFSET -3.068861 -0.000006 -0.276959
													CHANNELS 3 Zrotation Yrotation Xrotation
													JOINT RightHandRing4
													{
														OFFSET -1.869926 0.000022 -0.168758
														CHANNELS 3 Zrotation Yrotation Xrotation
														End Site
														{
															OFFSET 0.000000 0.000000 0.000000
														}
													}
												}
											}
										}
										JOINT RightHandPinky
										{
											OFFSET -0.162997 -0.250032 -0.975117
											CHANNELS 3 Zrotation Yrotation Xrotation
											JOINT RightHandPinky1
											{
												OFFSET -6.681490 0.000008 -1.494095
												CHANNELS 3 Zrotation Yrotation Xrotation
												JOINT RightHandPinky2
												{
													OFFSET -3.580950 0.000013 -0.800763
													CHANNELS 3 Zrotation Yrotation Xrotation
													JOINT RightHandPinky3
													{
														OFFSET -2.276503 0.000018 -0.509079
														CHANNELS 3 Zrotation Yrotation Xrotation
														JOINT RightHandPinky4
														{
															OFFSET -1.690350 0.000034 -0.377986
															CHANNELS 3 Zrotation Yrotation Xrotation
															End Site
															{
																OFFSET 0.000000 0.000000 0.000000
															}
														}
													}
												}
											}
										}
									}
									JOINT RightHandIndex
									{
										OFFSET -0.250039 -0.250025 0.956501
										CHANNELS 3 Zrotation Yrotation Xrotation
										JOINT RightHandIndex1
										{
											OFFSET -8.934112 -0.000001 0.806263
											CHANNELS 3 Zrotation Yrotation Xrotation
											JOINT RightHandIndex2
											{
												OFFSET -4.694692 0.000035 0.423701
												CHANNELS 3 Zrotation Yrotation Xrotation
												JOINT RightHandIndex3
												{
													OFFSET -2.811736 -0.000020 0.253761
													CHANNELS 3 Zrotation Yrotation Xrotation
													JOINT RightHandIndex4
													{
														OFFSET -1.709980 -0.000012 0.154330
														CHANNELS 3 Zrotation Yrotation Xrotation
														End Site
														{
															OFFSET 0.000000 0.000000 0.000000
														}
													}
												}
											}
										}
										JOINT RightHandThumb1
										{
											OFFSET -0.163039 -0.750029 0.975089
											CHANNELS 3 Zrotation Yrotation Xrotation
											JOINT RightHandThumb2
											{
												OFFSET -5.411674 0.835513 2.244723
												CHANNELS 3 Zrotation Yrotation Xrotation
												JOINT RightHandThumb3
												{
													OFFSET -3.567180 0.550769 1.479608
													CHANNELS 3 Zrotation Yrotation Xrotation
													JOINT RightHandThumb4
													{
														OFFSET -2.150551 0.332019 0.892006
														CHANNELS 3 Zrotation Yrotation Xrotation
														End Site
														{
															OFFSET 0.000000 0.000000 0.000000
														}
													}
												}
											}
										}
									}
								}
							}
						}
					}
					JOINT LeftShoulder
					{
						OFFSET -0.000053 11.106458 6.072581
						CHANNELS 3 Zrotation Yrotation Xrotation
						JOINT LeftArm
						{
							OFFSET 19.427856 -0.000115 -0.000031
							CHANNELS 3 Zrotation Yrotation Xrotation
							JOINT LeftForeArm
							{
								OFFSET 29.350737 -0.000016 0.000043
								CHANNELS 3 Zrotation Yrotation Xrotation
								JOINT LeftHand
								{
									OFFSET 27.018125 -0.000011 -0.000072
									CHANNELS 3 Zrotation Yrotation Xrotation
									JOINT LeftHandMiddle1
									{
										OFFSET 9.402689 -0.000009 0.000004
										CHANNELS 3 Zrotation Yrotation Xrotation
										JOINT LeftHandMiddle2
										{
											OFFSET 4.950096 0.000019 0.000030
											CHANNELS 3 Zrotation Yrotation Xrotation
											JOINT LeftHandMiddle3
											{
												OFFSET 3.211977 -0.000018 -0.000014
												CHANNELS 3 Zrotation Yrotation Xrotation
												JOINT LeftHandMiddle4
												{
													OFFSET 1.927581 0.000013 -0.000082
													CHANNELS 3 Zrotation Yrotation Xrotation
													End Site
													{
														OFFSET 0.000000 0.000000 0.000000
													}
												}
											}
										}
									}
									JOINT LeftHandRing
									{
										OFFSET 0.249984 -0.249998 -0.906118
										CHANNELS 3 Zrotation Yrotation Xrotation
										JOINT LeftHandRing1
										{
											OFFSET 8.286055 0.000025 -0.747769
											CHANNELS 3 Zrotation Yrotation Xrotation
											JOINT LeftHandRing2
											{
												OFFSET 4.585461 -0.000018 -0.413798
												CHANNELS 3 Zrotation Yrotation Xrotation
												JOINT LeftHandRing3
												{
													OFFSET 3.124411 0.000018 -0.281964
													CHANNELS 3 Zrotation Yrotation Xrotation
													JOINT LeftHandRing4
													{
														OFFSET 1.908776 -0.000031 -0.172258
														CHANNELS 3 Zrotation Yrotation Xrotation
														End Site
														{
															OFFSET 0.000000 0.000000 0.000000
														}
													}
												}
											}
										}
										JOINT LeftHandPinky
										{
											OFFSET 0.167545 -0.250003 -0.924977
											CHANNELS 3 Zrotation Yrotation Xrotation
											JOINT LeftHandPinky1
											{
												OFFSET 6.823489 0.000007 -1.525889
												CHANNELS 3 Zrotation Yrotation Xrotation
												JOINT LeftHandPinky2
												{
													OFFSET 3.642848 -0.000000 -0.814602
													CHANNELS 3 Zrotation Yrotation Xrotation
													JOINT LeftHandPinky3
													{
														OFFSET 2.333102 -0.000019 -0.521753
														CHANNELS 3 Zrotation Yrotation Xrotation
														JOINT LeftHandPinky4
														{
															OFFSET 1.725442 -0.000007 -0.385850
															CHANNELS 3 Zrotation Yrotation Xrotation
															End Site
															{
																OFFSET 0.000000 0.000000 0.000000
															}
														}
													}
												}
											}
										}
									}
									JOINT LeftHandIndex
									{
										OFFSET 0.250025 -0.250006 0.906171
										CHANNELS 3 Zrotation Yrotation Xrotation
										JOINT LeftHandIndex1
										{
											OFFSET 9.088011 -0.000002 0.820125
											CHANNELS 3 Zrotation Yrotation Xrotation
											JOINT LeftHandIndex2
											{
												OFFSET 4.776543 0.000012 0.431081
												CHANNELS 3 Zrotation Yrotation Xrotation
												JOINT LeftHandIndex3
												{
													OFFSET 2.865127 -0.000008 0.258580
													CHANNELS 3 Zrotation Yrotation Xrotation
													JOINT LeftHandIndex4
													{
														OFFSET 1.745469 0.000005 0.157506
														CHANNELS 3 Zrotation Yrotation Xrotation
														End Site
														{
															OFFSET 0.000000 0.000000 0.000000
														}
													}
												}
											}
										}
										JOINT LeftHandThumb1
										{
											OFFSET 0.167552 -0.749992 0.924982
											CHANNELS 3 Zrotation Yrotation Xrotation
											JOINT LeftHandThumb2
											{
												OFFSET 5.551446 0.857132 2.302692
												CHANNELS 3 Zrotation Yrotation Xrotation
												JOINT LeftHandThumb3
												{
													OFFSET 3.625635 0.559788 1.503883
													CHANNELS 3 Zrotation Yrotation Xrotation
													JOINT LeftHandThumb4
													{
														OFFSET 2.195241 0.338955 0.910533
														CHANNELS 3 Zrotation Yrotation Xrotation
														End Site
														{
															OFFSET 0.000000 0.000000 0.000000
														}
													}
												}
											}
										}
									}
								}
							}
						}
					}
				}
			}
		}
	}
	JOINT RightUpLeg
	{
		OFFSET -8.786545 -0.000042 0.000043
		CHANNELS 3 Zrotation Yrotation Xrotation
		JOINT RightLeg
		{
			OFFSET -0.000040 -42.170400 -0.000019
			CHANNELS 3 Zrotation Yrotation Xrotation
			JOINT RightFoot
			{
				OFFSET -0.000022 -45.949140 -0.000053
				CHANNELS 3 Zrotation Yrotation Xrotation
				JOINT RightForeFoot
				{
					OFFSET 0.000028 -4.685788 -0.000022
					CHANNELS 3 Zrotation Yrotation Xrotation
					JOINT RightToeBase
					{
						OFFSET 0.000005 0.000010 18.351066
						CHANNELS 3 Zrotation Yrotation Xrotation
						JOINT RightToeBaseEnd
						{
							OFFSET 0.000085 -0.000019 6.416853
							CHANNELS 3 Zrotation Yrotation Xrotation
							End Site
							{
								OFFSET 0.000000 0.000000 0.000000
							}
						}
					}
				}
			}
		}
	}
	JOINT LeftUpLeg
	{
		OFFSET 8.786504 0.000056 -0.000041
		CHANNELS 3 Zrotation Yrotation Xrotation
		JOINT LeftLeg
		{
			OFFSET -0.000008 -42.170436 0.000020
			CHANNELS 3 Zrotation Yrotation Xrotation
			JOINT LeftFoot
			{
				OFFSET 0.000008 -45.949141 -0.000030
				CHANNELS 3 Zrotation Yrotation Xrotation
				JOINT LeftForeFoot
				{
					OFFSET 0.000020 -4.685845 -0.000008
					CHANNELS 3 Zrotation Yrotation Xrotation
					JOINT LeftToeBase
					{
						OFFSET 0.000053 -0.000029 18.351072
						CHANNELS 3 Zrotation Yrotation Xrotation
						JOINT LeftToeBaseEnd
						{
							OFFSET 0.000034 0.000032 7.522011
							CHANNELS 3 Zrotation Yrotation Xrotation
							End Site
							{
								OFFSET 0.000000 0.000000 0.000000
							}
						}
					}
				}
			}
		}
	}
}
MOTION
Frames: 5
Frame Time: 0.066667
2.089284 1.301217 -4.152254 1.914963 18.222214 -3.228404 0.377148 -0.283407 5.233194 0.073121 -0.073921 -1.660979 -0.464721 -0.247578 0.126574 0.502898 0.472264 7.209176 5.800082 -2.012466 6.147667 -11.943364 2.698675 1.914733 -4.418394 0.877560 0.878048 0.001888 -0.000876 0.000662 12.458912 -9.434713 -2.056015 63.279488 -2.306562 33.225670 179.999786 61.686501 158.302734 -16.070715 -14.560458 0.011315 43.226284 -7.395770 -0.002523 47.322033 0.000539 0.000505 25.299355 -0.001317 0.002224 0.002597 -0.001942 -0.001573 -2.126668 -1.490929 -4.309280 47.441616 -4.217776 -3.796525 53.482418 2.094096 -4.157303 21.586174 0.365176 -1.902668 -0.000414 -0.000722 -0.000091 -2.843241 -5.087244 -5.041406 31.368912 5.306696 -6.784298 53.792736 5.292417 -10.396407 38.052776 2.741897 -7.923999 -0.000458 -0.000584 0.000660 -0.120928 7.851714 -1.092494 30.856508 -14.553678 2.774143 37.620590 -1.077704 3.158937 28.067249 -0.608326 2.434954 0.000517 -0.000516 0.000900 7.610253 1.485769 56.527977 9.306286 -3.722472 2.868738 15.055673 -10.228767 3.538281 -0.003560 0.001852 0.000578 -16.169851 5.099386 -1.461486 -55.327068 4.931710 32.169750 179.999008 -51.372402 -169.246948 2.201123 16.853645 0.017750 -35.759651 -0.068078 -0.000644 -35.479900 -0.000292 -0.000573 -23.665583 0.001925 -0.000188 0.001562 -0.000517 0.000209 -0.285370 0.006911 -13.516896 -22.995232 3.666394 -2.013297 -43.631828 -1.428051 -3.567271 -13.789400 -0.150265 -1.233256 -0.000313 0.000230 0.001207 0.905959 -0.362412 -7.928057 -11.477120 11.743735 -2.491352 -32.746193 -2.044190 -6.949068 -28.529436 -1.564647 -6.133869 0.000479 0.000717 0.000946 1.550497 -7.181614 -6.667361 -34.480907 8.319239 2.978203 -25.868296 0.506516 2.258271 -14.330916 0.154867 1.282043 0.000983 0.000175 -0.000849 -9.594962 11.060714 53.228104 -0.115015 5.639668 -0.720821 0.000000 0.000000 0.000000 -0.001616 -0.000914 0.000174 -6.549231 -6.658420 12.833297 -0.000817 0.001373 0.068831 0.000000 -0.000000 -0.000000 -0.000000 0.000000 -0.000000 -0.000000 0.000000 0.000000 0.000000 0.000000 0.000000 1.179112 -7.495436 10.411156 0.000742 -0.000973 -2.458653 -0.000000 0.000000 -0.000000 0.000000 0.000000 0.000000 0.000000 -0.000000 0.000000 0.000000 0.000000 -0.000000 
1.994883 1.316773 -4.188045 1.956145 18.316601 -3.047056 0.454564 -0.301323 5.305171 0.097859 -0.090132 -1.664537 -0.475592 -0.440253 0.009240 0.345027 0.421528 7.027202 5.808922 -1.833916 6.278296 -11.829813 3.094104 2.152565 -4.384068 0.894681 0.944620 0.001451 -0.000309 0.000879 12.340945 -9.310675 -2.004403 63.374405 -2.362223 33.025764 179.999619 61.976601 157.520935 -15.808892 -14.427889 0.011191 43.337406 -7.301555 -0.003236 46.903446 0.000269 0.000402 25.195789 -0.001367 0.002088 0.002174 -0.002027 -0.001651 -2.076469 -1.519626 -4.442258 47.673359 -4.153193 -3.810477 53.199841 2.074123 -4.142337 21.434395 0.360362 -1.889873 -0.000484 -0.000471 0.000371 -2.822250 -5.098142 -4.985426 31.538452 5.428918 -6.819700 53.463680 5.235136 -10.352822 37.784569 2.705470 -7.876143 -0.000241 -0.000574 0.000759 -0.115965 7.868797 -1.204657 30.863892 -14.616463 2.775400 37.475883 -1.070413 3.148516 27.929918 -0.603479 2.423521 0.000742 -0.000280 0.000967 7.671087 1.264365 56.762318 9.558356 -3.796316 2.938296 15.090697 -10.252561 3.543954 -0.003398 0.001562 0.000146 -16.077883 4.974014 -1.423275 -55.450714 4.705230 32.285641 179.999207 -51.331112 -169.122543 2.315032 16.927723 0.020826 -35.711613 -0.092719 -0.000896 -35.314667 -0.000166 -0.000515 -23.614006 0.001918 -0.000558 0.001324 -0.000304 0.000229 -0.279274 0.008643 -13.539898 -22.972015 3.661024 -2.011026 -43.426003 -1.415277 -3.553790 -13.715674 -0.148668 -1.226503 -0.000288 0.000066 0.001164 0.916465 -0.342084 -7.926961 -11.417515 11.770156 -2.478300 -32.663288 -2.035141 -6.934323 -28.412277 -1.552142 -6.110252 0.000381 0.000637 0.000876 1.564479 -7.195189 -6.701107 -34.475788 8.282778 2.977485 -25.758673 0.501370 2.249701 -14.384550 0.156330 1.287216 0.000870 0.000328 -0.001037 -9.549560 10.915578 53.200218 -0.167126 5.682341 -0.703873 0.000000 0.000000 0.000000 -0.001478 -0.000718 0.000316 -6.472504 -6.669515 12.596889 -0.001202 0.001963 0.039024 0.000000 -0.000000 -0.000000 -0.000000 0.000000 -0.000000 -0.000000 0.000000 0.000000 0.000000 0.000000 0.000000 1.097777 -7.628132 10.195998 0.001363 -0.000992 -2.647056 -0.000000 0.000000 -0.000000 0.000000 0.000000 0.000000 0.000000 -0.000000 0.000000 0.000000 0.000000 -0.000000 
1.907926 1.330419 -4.221210 1.991428 18.409821 -2.882525 0.517983 -0.317391 5.365694 0.119183 -0.104601 -1.667574 -0.481415 -0.615869 -0.097079 0.217762 0.376848 6.861030 5.824843 -1.683791 6.392582 -11.726783 3.439424 2.357147 -4.351659 0.909234 1.000787 0.001036 0.000187 0.001061 12.237364 -9.206558 -1.960499 63.463764 -2.419283 32.824879 179.999496 62.244987 156.808578 -15.620862 -14.307424 0.011296 43.454346 -7.209122 -0.003821 46.569614 0.000034 0.000297 25.130205 -0.001415 0.001961 0.001815 -0.002087 -0.001708 -2.031211 -1.544851 -4.567322 47.893017 -4.093292 -3.823666 52.987640 2.059180 -4.131067 21.317808 0.356664 -1.880032 -0.000569 -0.000252 0.000800 -2.805643 -5.107998 -4.933005 31.703321 5.539293 -6.853866 53.209148 5.190974 -10.318893 37.562706 2.675343 -7.836386 -0.000046 -0.000547 0.000843 -0.112334 7.885793 -1.310151 30.882935 -14.673764 2.777460 37.371822 -1.065417 3.141047 27.821667 -0.599731 2.414460 0.000929 -0.000067 0.001022 7.728223 1.065462 56.975388 9.781555 -3.864859 2.999465 15.125356 -10.276271 3.549555 -0.003262 0.001305 -0.000217 -15.994637 4.857154 -1.387676 -55.559326 4.504287 32.388401 179.999359 -51.293674 -169.056244 2.396415 17.000431 0.023214 -35.658249 -0.113652 -0.001109 -35.156567 -0.000050 -0.000458 -23.562813 0.001899 -0.000892 0.001104 -0.000115 0.000232 -0.271456 0.010476 -13.558613 -22.951073 3.659528 -2.009003 -43.214371 -1.402214 -3.539897 -13.644773 -0.147119 -1.220020 -0.000273 -0.000091 0.001123 0.926821 -0.317965 -7.923051 -11.365264 11.784852 -2.466905 -32.588905 -2.027153 -6.921056 -28.295321 -1.539672 -6.086725 0.000290 0.000572 0.000817 1.578062 -7.207856 -6.729880 -34.464581 8.246531 2.976404 -25.659033 0.496700 2.241899 -14.448273 0.158025 1.293200 0.000778 0.000466 -0.001200 -9.497473 10.750024 53.165562 -0.228681 5.728325 -0.683689 0.000000 0.000000 0.000000 -0.001351 -0.000571 0.000456 -6.400836 -6.680099 12.382112 -0.001539 0.002492 0.015760 0.000000 -0.000000 -0.000000 -0.000000 0.000000 -0.000000 -0.000000 0.000000 0.000000 0.000000 0.000000 0.000000 1.023020 -7.756250 10.006302 0.001888 -0.001002 -2.819663 -0.000000 0.000000 -0.000000 0.000000 0.000000 0.000000 0.000000 -0.000000 0.000000 0.000000 0.000000 -0.000000 
1.828515 1.342156 -4.251719 2.020801 18.501890 -2.734829 0.567405 -0.331612 5.414767 0.137094 -0.117330 -1.670092 -0.482188 -0.774418 -0.192390 0.121102 0.338223 6.710680 5.847847 -1.562090 6.490494 -11.634289 3.734655 2.528590 -4.321168 0.921218 1.046552 0.000643 0.000614 0.001209 12.148132 -9.122371 -1.924294 63.547539 -2.477731 32.623028 179.999435 62.491657 156.165771 -15.506608 -14.199265 0.011630 43.577122 -7.118459 -0.004282 46.320618 -0.000164 0.000192 25.102600 -0.001459 0.001845 0.001520 -0.002122 -0.001743 -1.990893 -1.566602 -4.684471 48.100548 -4.038092 -3.836100 52.845829 2.049296 -4.123549 21.236416 0.354083 -1.873153 -0.000668 -0.000062 0.001196 -2.793417 -5.116811 -4.884139 31.863523 5.637840 -6.886796 53.029179 5.160032 -10.294817 37.387203 2.651545 -7.804804 0.000129 -0.000505 0.000911 -0.110034 7.902706 -1.408976 30.913639 -14.725579 2.780318 37.308430 -1.062723 3.136545 27.742512 -0.597084 2.407780 0.001080 0.000123 0.001067 7.781659 0.889074 57.167118 9.975855 -3.928119 3.052256 15.159641 -10.299897 3.555082 -0.003155 0.001082 -0.000513 -15.920105 4.748812 -1.354693 -55.652943 4.328899 32.477985 179.999496 -51.260128 -169.047668 2.445217 17.071796 0.024886 -35.599586 -0.130876 -0.001284 -35.005585 0.000054 -0.000401 -23.512011 0.001868 -0.001189 0.000905 0.000052 0.000216 -0.261914 0.012410 -13.573037 -22.932409 3.661907 -2.007229 -42.996910 -1.388859 -3.525585 -13.576696 -0.145618 -1.213807 -0.000268 -0.000239 0.001084 0.937030 -0.290055 -7.916329 -11.320373 11.787835 -2.457163 -32.523060 -2.020230 -6.909274 -28.178568 -1.527240 -6.063287 0.000206 0.000522 0.000767 1.591248 -7.219619 -6.753680 -34.447300 8.210499 2.974958 -25.569376 0.492507 2.234868 -14.522076 0.159953 1.299994 0.000706 0.000591 -0.001338 -9.438719 10.564033 53.124115 -0.299687 5.777619 -0.660267 0.000000 0.000000 0.000000 -0.001235 -0.000472 0.000595 -6.334224 -6.690173 12.188982 -0.001829 0.002960 -0.000955 0.000000 -0.000000 -0.000000 -0.000000 0.000000 0.000000 -0.000000 0.000000 0.000000 0.000000 0.000000 0.000000 0.954852 -7.879786 9.842027 0.002316 -0.001004 -2.976469 -0.000000 0.000000 -0.000000 0.000000 0.000000 0.000000 0.000000 -0.000000 0.000000 0.000000 0.000000 -0.000000 
1.756748 1.351985 -4.279540 2.044257 18.592804 -2.603980 0.602832 -0.343987 5.452397 0.151590 -0.128318 -1.672091 -0.477913 -0.915898 -0.276706 0.055046 0.305657 6.576170 5.877932 -1.468815 6.572005 -11.552353 3.979824 2.667003 -4.292596 0.930634 1.081913 0.000273 0.000970 0.001321 12.073222 -9.058118 -1.895783 63.625721 -2.537564 32.420227 179.999451 62.716637 155.592468 -15.466114 -14.103539 0.012193 43.705746 -7.029554 -0.004620 46.156502 -0.000326 0.000085 25.112965 -0.001500 0.001739 0.001290 -0.002131 -0.001756 -1.955517 -1.584881 -4.793702 48.295937 -3.987613 -3.847783 52.774372 2.044487 -4.119821 21.190229 0.352619 -1.869242 -0.000781 0.000097 0.001559 -2.785575 -5.124584 -4.838833 32.019066 5.724577 -6.918488 52.923801 5.142384 -10.280735 37.258091 2.634099 -7.781457 0.000282 -0.000446 0.000963 -0.109066 7.919534 -1.501132 30.956015 -14.771895 2.783975 37.285713 -1.062335 3.135021 27.692469 -0.595541 2.403487 0.001192 0.000289 0.001102 7.831394 0.735207 57.337456 10.141232 -3.986110 3.096684 15.193559 -10.323443 3.560538 -0.003074 0.000892 -0.000741 -15.854287 4.648995 -1.324324 -55.731586 4.179058 32.554344 179.999588 -51.230438 -169.096588 2.461381 17.141859 0.025814 -35.535610 -0.144391 -0.001421 -34.861736 0.000149 -0.000345 -23.461594 0.001824 -0.001451 0.000724 0.000195 0.000183 -0.250650 0.014445 -13.583173 -22.916029 3.668160 -2.005702 -42.773602 -1.375209 -3.510851 -13.511447 -0.144164 -1.207865 -0.000275 -0.000380 0.001047 0.947089 -0.258354 -7.906793 -11.282845 11.779106 -2.449077 -32.465744 -2.014372 -6.898979 -28.062023 -1.514845 -6.039939 0.000130 0.000488 0.000729 1.604036 -7.230475 -6.772508 -34.423931 8.174680 2.973148 -25.489685 0.488790 2.228609 -14.605961 0.162114 1.307596 0.000654 0.000700 -0.001451 -9.373319 10.357593 53.075893 -0.380148 5.830220 -0.633607 0.000000 0.000000 0.000000 -0.001130 -0.000421 0.000733 -6.272662 -6.699740 12.017516 -0.002072 0.003366 -0.011113 -0.000000 -0.000000 -0.000000 -0.000000 0.000000 0.000000 -0.000000 0.000000 0.000000 0.000000 0.000000 0.000000 0.893283 -7.998735 9.703129 0.002648 -0.000997 -3.117471 -0.000000 0.000000 -0.000000 0.000000 0.000000 0.000000 0.000000 -0.000000 0.000000 0.000000 0.000000 -0.000000 
